# xmcd
#
# Track frame offsets: 
#        150
#        18436
#        39580
#        56533
#
# Disc length: 995 seconds
#
# Revision: 0
# Processed by: cddbd v1.5.2PL0 Copyright (c) Steve Scherf et al.
# Submitted via: ExactAudioCopy v0.99pb5
#
DISCID=2a03e104
DTITLE=YUI - Rain
DYEAR=2010
DGENRE=JPop
TTITLE0=Rain
TTITLE1=a room
TTITLE2=How crazy
TTITLE3=Rain ~instrumental~
EXTD=
EXTT0=
EXTT1=
EXTT2=
EXTT3=
PLAYORDER=
